<?xml version="1.0" encoding="utf-8"?><svg viewBox="0 0 32 32" xmlns="http://www.w3.org/2000/svg" xmlns:xlink="http://www.w3.org/1999/xlink"><style>:root>svg{display:none}:root>svg:target{display:block}</style><svg fill="none" viewBox="0 0 32 32" id="basket" xmlns="http://www.w3.org/2000/svg"><g clip-path="url(#aa)"><path d="M32 12h-5.434l-5.708-9.515a1 1 0 0 0-1.715 1.03L24.233 12H7.767l5.091-8.485a1 1 0 1 0-1.714-1.03L5.433 12H0v2h2.17l2.54 13.552A3.001 3.001 0 0 0 7.66 30h16.68a3 3 0 0 0 2.948-2.447L29.83 14H32v-2Zm-6.678 15.185a.999.999 0 0 1-.982.815H7.66a1 1 0 0 1-.983-.816L4.205 14h23.59l-2.473 13.185Z" fill="#fff"/></g><defs><clipPath id="aa"><path fill="#fff" d="M0 0h32v32H0z"/></clipPath></defs></svg><svg fill="none" viewBox="0 0 23 23" id="close" xmlns="http://www.w3.org/2000/svg"><path fill="#fff" d="M2.094 0 23 20.907l-2.09 2.091L.002 2.091z"/><path fill="#fff" d="M0 20.907 20.907 0l2.09 2.09L2.091 22.999z"/></svg></svg>