<svg width="1440" height="863" fill="none" xmlns="http://www.w3.org/2000/svg"><g opacity=".3"><path d="M622.022.756c40.954 161.429-17.126 267.21-225.523 366.074C188.102 465.695 66.509 509.394 0 680.015V.756h622.022Z" fill="url(#a)"/><path d="M1075.14.756c75.52 160.274 64 344.639-103.678 502.878C832.32 634.954 724.166 709.607 653.894 863H1440V.756h-364.86Z" fill="url(#b)"/><path opacity=".5" d="M757.018 863s-74.842-177.708 123.571-263.933C1079 512.843 1182.66 470.352 1222.35 330.064c39.69-140.287 96.11-189.728 217.65-203.524V863H757.018Z" fill="url(#c)"/><path opacity=".5" d="M1440 718.643c-176.7 94.261-450.605-9.209-635.597-149.461-173.702-131.699-380.774-174.967-558.701-103.849C48.442 544.159 0 750.339 0 750.339V863h1440V718.643Z" fill="url(#d)"/><path opacity=".5" d="M0 436.965c174.509 78.171 302.592-37.939 318.317-134.51C334.042 205.884 339.149 46.265 541.382.756H0v436.209Z" fill="url(#e)"/><path opacity=".5" d="M1440 290.039c-88.38 123.922-262.44 141.287-394.29 30.799C931.258 224.94 788.179 115.262 595.142 126.54 339.36 141.492 223.949 122.143 154.829.756H1440V290.04Z" fill="url(#f)"/><path opacity=".5" d="M0 186.052c69.062 159.36 304.013 149.755 403.334 38.18 88.167-99.054 177.408-166.671 348.288-126.129 170.88 40.543 253.438 77.62 348.478 37.956C1195.14 96.396 1195.14.756 1195.14.756H0v185.296Z" fill="url(#g)"/><path opacity=".5" d="M0 554.558s176.851-116.783 345.542-17.573c180.48 106.143 178.56 234.514 391.7 325.998H0V554.558Z" fill="url(#h)"/></g><defs><linearGradient id="a" x1="120.257" y1=".415" x2="325.517" y2="453.888" gradientUnits="userSpaceOnUse"><stop stop-color="#F2EA00"/><stop offset="1" stop-color="#F2B100"/></linearGradient><linearGradient id="b" x1="1419.96" y1="883.382" x2="1060.27" y2="343.676" gradientUnits="userSpaceOnUse"><stop stop-color="#F2EA00"/><stop offset="1" stop-color="#F2B100"/></linearGradient><linearGradient id="c" x1="1043.14" y1="953.115" x2="1201.33" y2="366.923" gradientUnits="userSpaceOnUse"><stop stop-color="#F24500"/><stop offset=".34" stop-color="#F28000"/><stop offset=".791" stop-color="#F2C900"/><stop offset="1" stop-color="#F2E600"/></linearGradient><linearGradient id="d" x1="587.361" y1="302.129" x2="689.687" y2="769.468" gradientUnits="userSpaceOnUse"><stop stop-color="#F24500"/><stop offset=".34" stop-color="#F28000"/><stop offset=".791" stop-color="#F2C900"/><stop offset="1" stop-color="#F2E600"/></linearGradient><linearGradient id="e" x1="104.89" y1="66.242" x2="426.389" y2="433.076" gradientUnits="userSpaceOnUse"><stop stop-color="#F24500"/><stop offset=".34" stop-color="#F28000"/><stop offset=".791" stop-color="#F2C900"/><stop offset="1" stop-color="#F2E600"/></linearGradient><linearGradient id="f" x1="676.619" y1="-101.856" x2="1401.05" y2="724.723" gradientUnits="userSpaceOnUse"><stop stop-color="#F24500"/><stop offset=".34" stop-color="#F28000"/><stop offset=".791" stop-color="#F2C900"/><stop offset="1" stop-color="#F2E600"/></linearGradient><linearGradient id="g" x1="800.459" y1="345.055" x2="516.635" y2="-80.806" gradientUnits="userSpaceOnUse"><stop stop-color="#F25A00"/><stop offset=".251" stop-color="#F28000"/><stop offset=".762" stop-color="#F2C900"/><stop offset="1" stop-color="#F2E600"/></linearGradient><linearGradient id="h" x1="502.233" y1="1024.72" x2="241.982" y2="634.227" gradientUnits="userSpaceOnUse"><stop stop-color="#F24500"/><stop offset=".34" stop-color="#F28000"/><stop offset=".791" stop-color="#F2C900"/><stop offset="1" stop-color="#F2E600"/></linearGradient></defs></svg>